<mxfile host="app.diagrams.net" modified="2021-09-03T02:21:42.952Z" agent="5.0 (Macintosh; Intel Mac OS X 11_2_1) AppleWebKit/537.36 (KHTML, like Gecko) Chrome/89.0.4389.90 Safari/537.36" etag="9gMKQ7H849aThTv6wmvy" version="14.9.6" type="github">
  <diagram name="Page-1" id="74e2e168-ea6b-b213-b513-2b3c1d86103e">
    <mxGraphModel dx="1679" dy="1636" grid="1" gridSize="10" guides="1" tooltips="1" connect="1" arrows="1" fold="1" page="1" pageScale="1" pageWidth="1100" pageHeight="850" background="none" math="0" shadow="0">
      <root>
        <mxCell id="0" />
        <mxCell id="1" parent="0" />
        <mxCell id="24nYvB3ATFt7dp7lOH2c-47" value="coupon redeem in epep pool" style="swimlane;html=1;childLayout=stackLayout;startSize=20;rounded=0;shadow=0;labelBackgroundColor=none;strokeWidth=1;fontFamily=Verdana;fontSize=8;align=center;" parent="1" vertex="1">
          <mxGeometry x="10" y="-820" width="1160" height="880" as="geometry" />
        </mxCell>
        <mxCell id="24nYvB3ATFt7dp7lOH2c-50" value="guestApp/wechat" style="swimlane;html=1;startSize=20;" parent="24nYvB3ATFt7dp7lOH2c-47" vertex="1">
          <mxGeometry y="20" width="190" height="860" as="geometry" />
        </mxCell>
        <mxCell id="24nYvB3ATFt7dp7lOH2c-53" value="(ecoupon)&lt;br&gt;show qrcode" style="rounded=1;whiteSpace=wrap;html=1;shadow=0;labelBackgroundColor=none;strokeWidth=1;fontFamily=Verdana;fontSize=8;align=center;" parent="24nYvB3ATFt7dp7lOH2c-50" vertex="1">
          <mxGeometry x="30" y="140" width="100" height="60" as="geometry" />
        </mxCell>
        <mxCell id="24nYvB3ATFt7dp7lOH2c-109" style="edgeStyle=orthogonalEdgeStyle;rounded=0;orthogonalLoop=1;jettySize=auto;html=1;exitX=1;exitY=0.5;exitDx=0;exitDy=0;" parent="24nYvB3ATFt7dp7lOH2c-47" source="24nYvB3ATFt7dp7lOH2c-53" target="24nYvB3ATFt7dp7lOH2c-57" edge="1">
          <mxGeometry relative="1" as="geometry" />
        </mxCell>
        <mxCell id="24nYvB3ATFt7dp7lOH2c-55" value="redemption+" style="swimlane;html=1;startSize=20;" parent="24nYvB3ATFt7dp7lOH2c-47" vertex="1">
          <mxGeometry x="190" y="20" width="160" height="860" as="geometry" />
        </mxCell>
        <mxCell id="24nYvB3ATFt7dp7lOH2c-57" value="redeem&lt;br&gt;(scan)" style="rounded=1;whiteSpace=wrap;html=1;shadow=0;labelBackgroundColor=none;strokeWidth=1;fontFamily=Verdana;fontSize=8;align=center;" parent="24nYvB3ATFt7dp7lOH2c-55" vertex="1">
          <mxGeometry x="40" y="140" width="100" height="60" as="geometry" />
        </mxCell>
        <mxCell id="24nYvB3ATFt7dp7lOH2c-58" value="result" style="rounded=1;whiteSpace=wrap;html=1;shadow=0;labelBackgroundColor=none;strokeWidth=1;fontFamily=Verdana;fontSize=8;align=center;" parent="24nYvB3ATFt7dp7lOH2c-55" vertex="1">
          <mxGeometry x="30" y="490" width="100" height="60" as="geometry" />
        </mxCell>
        <mxCell id="24nYvB3ATFt7dp7lOH2c-110" value="redeem&lt;br&gt;(cofirm)" style="rounded=1;whiteSpace=wrap;html=1;shadow=0;labelBackgroundColor=none;strokeWidth=1;fontFamily=Verdana;fontSize=8;align=center;" parent="24nYvB3ATFt7dp7lOH2c-55" vertex="1">
          <mxGeometry x="30" y="290" width="100" height="60" as="geometry" />
        </mxCell>
        <mxCell id="24nYvB3ATFt7dp7lOH2c-95" value="ecoupon-management-svc" style="swimlane;html=1;startSize=20;" parent="24nYvB3ATFt7dp7lOH2c-47" vertex="1">
          <mxGeometry x="350" y="20" width="200" height="860" as="geometry" />
        </mxCell>
        <mxCell id="24nYvB3ATFt7dp7lOH2c-88" value="coupon info" style="rounded=1;whiteSpace=wrap;html=1;shadow=0;labelBackgroundColor=none;strokeWidth=1;fontFamily=Verdana;fontSize=8;align=center;" parent="24nYvB3ATFt7dp7lOH2c-95" vertex="1">
          <mxGeometry x="50" y="140" width="100" height="60" as="geometry" />
        </mxCell>
        <mxCell id="24nYvB3ATFt7dp7lOH2c-71" value="earlyaccess-redemption-svc" style="swimlane;html=1;startSize=20;" parent="24nYvB3ATFt7dp7lOH2c-47" vertex="1">
          <mxGeometry x="550" y="20" width="290" height="860" as="geometry" />
        </mxCell>
        <mxCell id="24nYvB3ATFt7dp7lOH2c-75" style="edgeStyle=elbowEdgeStyle;rounded=0;orthogonalLoop=1;jettySize=auto;html=1;exitX=0.5;exitY=1;exitDx=0;exitDy=0;dashed=1;" parent="24nYvB3ATFt7dp7lOH2c-71" source="24nYvB3ATFt7dp7lOH2c-76" target="24nYvB3ATFt7dp7lOH2c-78" edge="1">
          <mxGeometry relative="1" as="geometry" />
        </mxCell>
        <mxCell id="24nYvB3ATFt7dp7lOH2c-76" value="&lt;span style=&quot;font-size: 8px&quot;&gt;food_wine_&lt;br&gt;redemption_&lt;br&gt;item_queue&lt;/span&gt;" style="rounded=1;whiteSpace=wrap;html=1;shadow=0;labelBackgroundColor=none;strokeWidth=1;fontFamily=Verdana;fontSize=8;align=center;" parent="24nYvB3ATFt7dp7lOH2c-71" vertex="1">
          <mxGeometry x="88" y="450" width="100" height="60" as="geometry" />
        </mxCell>
        <mxCell id="24nYvB3ATFt7dp7lOH2c-77" value="retry" style="edgeStyle=elbowEdgeStyle;rounded=0;orthogonalLoop=1;jettySize=auto;html=1;exitX=0;exitY=0.5;exitDx=0;exitDy=0;entryX=0;entryY=0.5;entryDx=0;entryDy=0;dashed=1;" parent="24nYvB3ATFt7dp7lOH2c-71" source="24nYvB3ATFt7dp7lOH2c-78" target="24nYvB3ATFt7dp7lOH2c-76" edge="1">
          <mxGeometry relative="1" as="geometry">
            <Array as="points">
              <mxPoint x="30" y="870" />
            </Array>
          </mxGeometry>
        </mxCell>
        <mxCell id="24nYvB3ATFt7dp7lOH2c-78" value="asyc call&lt;br&gt;eCoupon" style="rounded=1;whiteSpace=wrap;html=1;shadow=0;labelBackgroundColor=none;strokeWidth=1;fontFamily=Verdana;fontSize=8;align=center;" parent="24nYvB3ATFt7dp7lOH2c-71" vertex="1">
          <mxGeometry x="88" y="625" width="100" height="60" as="geometry" />
        </mxCell>
        <mxCell id="24nYvB3ATFt7dp7lOH2c-114" style="edgeStyle=orthogonalEdgeStyle;rounded=0;orthogonalLoop=1;jettySize=auto;html=1;exitX=0.5;exitY=1;exitDx=0;exitDy=0;entryX=0.5;entryY=0;entryDx=0;entryDy=0;" parent="24nYvB3ATFt7dp7lOH2c-71" source="24nYvB3ATFt7dp7lOH2c-81" target="24nYvB3ATFt7dp7lOH2c-76" edge="1">
          <mxGeometry relative="1" as="geometry" />
        </mxCell>
        <mxCell id="24nYvB3ATFt7dp7lOH2c-81" value="coupon redeem" style="rounded=1;whiteSpace=wrap;html=1;shadow=0;labelBackgroundColor=none;strokeWidth=1;fontFamily=Verdana;fontSize=8;align=center;" parent="24nYvB3ATFt7dp7lOH2c-71" vertex="1">
          <mxGeometry x="88" y="290" width="100" height="60" as="geometry" />
        </mxCell>
        <mxCell id="24nYvB3ATFt7dp7lOH2c-89" style="edgeStyle=orthogonalEdgeStyle;rounded=0;orthogonalLoop=1;jettySize=auto;html=1;exitX=1;exitY=0.25;exitDx=0;exitDy=0;entryX=0;entryY=0.5;entryDx=0;entryDy=0;" parent="24nYvB3ATFt7dp7lOH2c-47" source="24nYvB3ATFt7dp7lOH2c-78" target="24nYvB3ATFt7dp7lOH2c-92" edge="1">
          <mxGeometry relative="1" as="geometry" />
        </mxCell>
        <mxCell id="24nYvB3ATFt7dp7lOH2c-90" value="eCoupon" style="swimlane;html=1;startSize=20;" parent="24nYvB3ATFt7dp7lOH2c-47" vertex="1">
          <mxGeometry x="840" y="20" width="160" height="860" as="geometry" />
        </mxCell>
        <mxCell id="24nYvB3ATFt7dp7lOH2c-91" value="use&lt;br&gt;coupon" style="rounded=1;whiteSpace=wrap;html=1;shadow=0;labelBackgroundColor=none;strokeWidth=1;fontFamily=Verdana;fontSize=8;align=center;" parent="24nYvB3ATFt7dp7lOH2c-90" vertex="1">
          <mxGeometry x="30" y="720" width="100" height="60" as="geometry" />
        </mxCell>
        <mxCell id="24nYvB3ATFt7dp7lOH2c-92" value="lock&lt;br&gt;coupon" style="rounded=1;whiteSpace=wrap;html=1;shadow=0;labelBackgroundColor=none;strokeWidth=1;fontFamily=Verdana;fontSize=8;align=center;" parent="24nYvB3ATFt7dp7lOH2c-90" vertex="1">
          <mxGeometry x="30" y="610" width="100" height="60" as="geometry" />
        </mxCell>
        <mxCell id="24nYvB3ATFt7dp7lOH2c-93" style="edgeStyle=orthogonalEdgeStyle;rounded=0;orthogonalLoop=1;jettySize=auto;html=1;exitX=1;exitY=0.5;exitDx=0;exitDy=0;dashed=1;" parent="24nYvB3ATFt7dp7lOH2c-47" source="24nYvB3ATFt7dp7lOH2c-91" edge="1">
          <mxGeometry relative="1" as="geometry">
            <mxPoint x="1060" y="770" as="targetPoint" />
          </mxGeometry>
        </mxCell>
        <mxCell id="24nYvB3ATFt7dp7lOH2c-94" value="asyn" style="edgeLabel;html=1;align=center;verticalAlign=middle;resizable=0;points=[];" parent="24nYvB3ATFt7dp7lOH2c-93" vertex="1" connectable="0">
          <mxGeometry x="-0.1807" relative="1" as="geometry">
            <mxPoint as="offset" />
          </mxGeometry>
        </mxCell>
        <mxCell id="24nYvB3ATFt7dp7lOH2c-106" style="edgeStyle=orthogonalEdgeStyle;rounded=0;orthogonalLoop=1;jettySize=auto;html=1;exitX=1;exitY=0.75;exitDx=0;exitDy=0;entryX=0;entryY=0.5;entryDx=0;entryDy=0;" parent="24nYvB3ATFt7dp7lOH2c-47" source="24nYvB3ATFt7dp7lOH2c-78" target="24nYvB3ATFt7dp7lOH2c-91" edge="1">
          <mxGeometry relative="1" as="geometry" />
        </mxCell>
        <mxCell id="24nYvB3ATFt7dp7lOH2c-111" style="edgeStyle=orthogonalEdgeStyle;rounded=0;orthogonalLoop=1;jettySize=auto;html=1;exitX=0.5;exitY=1;exitDx=0;exitDy=0;" parent="24nYvB3ATFt7dp7lOH2c-47" source="24nYvB3ATFt7dp7lOH2c-88" target="24nYvB3ATFt7dp7lOH2c-110" edge="1">
          <mxGeometry relative="1" as="geometry" />
        </mxCell>
        <mxCell id="24nYvB3ATFt7dp7lOH2c-112" style="edgeStyle=orthogonalEdgeStyle;rounded=0;orthogonalLoop=1;jettySize=auto;html=1;exitX=1;exitY=0.5;exitDx=0;exitDy=0;" parent="24nYvB3ATFt7dp7lOH2c-47" source="24nYvB3ATFt7dp7lOH2c-57" target="24nYvB3ATFt7dp7lOH2c-88" edge="1">
          <mxGeometry relative="1" as="geometry" />
        </mxCell>
        <mxCell id="24nYvB3ATFt7dp7lOH2c-113" style="edgeStyle=orthogonalEdgeStyle;rounded=0;orthogonalLoop=1;jettySize=auto;html=1;exitX=1;exitY=0.5;exitDx=0;exitDy=0;" parent="24nYvB3ATFt7dp7lOH2c-47" source="24nYvB3ATFt7dp7lOH2c-110" target="24nYvB3ATFt7dp7lOH2c-81" edge="1">
          <mxGeometry relative="1" as="geometry" />
        </mxCell>
        <mxCell id="24nYvB3ATFt7dp7lOH2c-98" value="galaxy" style="swimlane;html=1;startSize=20;" parent="24nYvB3ATFt7dp7lOH2c-47" vertex="1">
          <mxGeometry x="1000" y="20" width="160" height="860" as="geometry" />
        </mxCell>
        <mxCell id="24nYvB3ATFt7dp7lOH2c-99" value="notify galaxy" style="rounded=1;whiteSpace=wrap;html=1;shadow=0;labelBackgroundColor=none;strokeWidth=1;fontFamily=Verdana;fontSize=8;align=center;" parent="24nYvB3ATFt7dp7lOH2c-98" vertex="1">
          <mxGeometry x="50" y="720" width="100" height="60" as="geometry" />
        </mxCell>
        <mxCell id="24nYvB3ATFt7dp7lOH2c-115" style="edgeStyle=orthogonalEdgeStyle;rounded=0;orthogonalLoop=1;jettySize=auto;html=1;exitX=0.25;exitY=1;exitDx=0;exitDy=0;" parent="24nYvB3ATFt7dp7lOH2c-47" source="24nYvB3ATFt7dp7lOH2c-81" target="24nYvB3ATFt7dp7lOH2c-58" edge="1">
          <mxGeometry relative="1" as="geometry" />
        </mxCell>
      </root>
    </mxGraphModel>
  </diagram>
</mxfile>
